<svg xmlns="http://www.w3.org/2000/svg" width="1372.343" height="552.96" viewBox="0 0 1372.343 552.96"><defs><style>.a{opacity:0.03;}.b,.d{fill:none;stroke:#000;}.b{stroke-linecap:round;stroke-linejoin:round;stroke-width:5px;}.c{opacity:0.3;}.d{stroke-miterlimit:10;}</style></defs><g class="a" transform="translate(-33.8 -31.54)"><line class="b" x1="15.25" y1="14.3" transform="translate(480.421 130.73)"/><line class="b" y1="15.26" x2="14.31" transform="translate(481.127 130.25)"/><line class="b" x1="15.25" y1="14.31" transform="translate(523.634 339.562)"/><line class="b" y1="15.25" x2="14.31" transform="translate(524.296 339.09)"/><line class="b" x1="15.26" y1="14.31" transform="translate(48.29 458.052)"/><line class="b" y1="15.25" x2="14.3" transform="translate(48.77 457.573)"/><line class="b" x1="15.26" y1="14.3" transform="translate(41.63 109.85)"/><line class="b" y1="15.25" x2="14.3" transform="translate(42.11 109.38)"/><line class="b" x1="15.25" y1="14.31" transform="translate(1387.359 130.35)"/><line class="b" y1="15.25" x2="14.3" transform="translate(1387.829 129.88)"/><line class="b" x1="15.25" y1="14.3" transform="translate(943.534 202.322)"/><line class="b" y1="15.25" x2="14.31" transform="translate(943.768 201.858)"/><line class="b" x1="15.25" y1="14.3" transform="translate(1126.944 366.44)"/><line class="b" y1="15.25" x2="14.31" transform="translate(1126.992 365.966)"/><line class="b" x1="15.25" y1="14.3" transform="translate(1097.741 497.72)"/><line class="b" y1="15.25" x2="14.3" transform="translate(1097.806 497.25)"/><path class="b" d="M344.95,167.93l-10.5-18.17-10.47,18.18L313.5,186.11l20.98-.02,20.97-.01Z" transform="translate(427.349 -4.041)"/><path class="b" d="M310.23,389.93l-10.5-18.16-10.47,18.17-10.48,18.17,20.98-.01,20.97-.01Z" transform="translate(373.823 -11.791)"/><path class="b" d="M430.58,458.1l-10.5-18.16-10.47,18.17-10.48,18.18,20.97-.02,20.98-.01Z" transform="translate(559.362 -14.171)"/><path class="b" d="M499.8,318.67l5.41-20.27-20.25,5.45-20.26,5.44,14.84,14.82,14.84,14.83Z" transform="translate(658.628 -9.303)"/><path class="b" d="M154.87,83.38l5.42-20.27-20.26,5.45L119.77,74l14.85,14.82,14.84,14.82Z"/><path class="b" d="M140.51,521.29l5.41-20.27-20.25,5.45-20.26,5.44,14.84,14.82,14.84,14.83Z" transform="translate(0 -18.58)"/><path class="b" d="M521.05,106.02l18.16-10.5L521.04,85.05,502.86,74.57l.02,20.98.01,20.97Z" transform="translate(803.299)"/><path class="b" d="M140.04,315.57l18.16-10.5L140.03,294.6l-18.17-10.48.01,20.98.01,20.97Z" transform="translate(73.069 -8.824)"/><path class="b" d="M381,281.23a15.92,15.92,0,1,1-15.917-15.91A15.92,15.92,0,0,1,381,281.23Z" transform="translate(471.713 -8.007)"/><path class="b" d="M300.56,103.65a15.91,15.91,0,1,1-15.913-15.92,15.91,15.91,0,0,1,15.913,15.92Z" transform="translate(350.078)"/><path class="b" d="M310.72,573.3a15.92,15.92,0,1,1-15.91-15.92A15.92,15.92,0,0,1,310.72,573.3Z" transform="translate(365.427 -18.58)"/><path class="b" d="M353.28,549.51a15.92,15.92,0,0,1,31.83,0" transform="translate(477.934 -18.58)"/><path class="b" d="M226.27,305.1a15.92,15.92,0,1,1,31.83,0" transform="translate(285.856 -8.572)"/><path class="b" d="M58.85,175.89a15.84,15.84,0,1,1,31.68,0" transform="translate(-0.57 -4.237)"/><path class="b" d="M460,202a15.84,15.84,0,0,1,0-31.68" transform="translate(597.372 -4.717)"/><path class="b" d="M76.79,573.22a15.84,15.84,0,1,1,0-31.68" transform="translate(-0.57 -18.58)"/><path class="b" d="M247.55,67.13a15.84,15.84,0,1,1,0-31.68" transform="translate(285.474)"/><path class="b" d="M84.75,405.85a15.92,15.92,0,1,1-15.917-15.91A15.92,15.92,0,0,1,84.75,405.85Z" transform="translate(-0.57 -12.321)"/><path class="b" d="M575.47,424a15.92,15.92,0,1,1-15.91-15.92A15.92,15.92,0,0,1,575.47,424Z" transform="translate(802.729 -12.949)"/><rect class="b" width="31.65" height="31.65" transform="translate(1334.179 165.564)"/><rect class="b" width="31.65" height="31.65" transform="translate(379.635 180.846)"/><rect class="b" width="31.65" height="31.65" transform="translate(375.641 375.943)"/><rect class="b" width="31.65" height="31.65" transform="translate(1334.179 522.98)"/><rect class="b" width="31.65" height="31.65" transform="translate(948.754 35.46)"/><path class="b" d="M354.66,357.32c-6.91,0-5.72-12.26-14.54-12.26" transform="translate(443.576 -10.389)"/><path class="b" d="M383.73,357.32c-6.91,0-5.72-12.26-14.53-12.26" transform="translate(486.158 -10.389)"/><path class="b" d="M354.66,357.32c6.91,0,5.72-12.26,14.54-12.26" transform="translate(464.871 -10.389)"/><path class="b" d="M398.27,345.06" transform="translate(515.073 -10.165)"/><path class="b" d="M383.73,357.32c6.91,0,5.72-12.26,14.54-12.26" transform="translate(507.448 -10.389)"/><path class="b" d="M437.48,585.55c-6.91,0-5.72-12.25-14.54-12.25" transform="translate(564.875 -18.58)"/><path class="b" d="M466.55,585.55c-6.91,0-5.72-12.25-14.54-12.25" transform="translate(607.452 -18.58)"/><path class="b" d="M437.48,585.55c6.91,0,5.72-12.25,14.53-12.25" transform="translate(586.16 -18.58)"/><path class="b" d="M481.08,573.3" transform="translate(633.226 -18.58)"/><path class="b" d="M466.55,585.55c6.91,0,5.72-12.25,14.53-12.25" transform="translate(628.736 -18.58)"/><path class="b" d="M477.12,256.51c-6.91,0-5.72-12.25-14.54-12.25" transform="translate(622.933 -7.022)"/><path class="b" d="M506.19,256.51c-6.91,0-5.72-12.25-14.53-12.25" transform="translate(802.729 -7.022)"/><path class="b" d="M477.12,256.51c6.91,0,5.72-12.25,14.54-12.25" transform="translate(644.228 -7.022)"/><path class="b" d="M520.73,244.26" transform="translate(802.729 -6.871)"/><path class="b" d="M506.19,256.51c6.91,0,5.72-12.25,14.54-12.25" transform="translate(802.729 -7.022)"/><path class="b" d="M72.84,241.7c-6.91,0-5.72-12.25-14.54-12.25" transform="translate(-0.57 -6.528)"/><path class="b" d="M101.91,241.7c-6.91,0-5.72-12.25-14.54-12.25" transform="translate(-0.57 -6.528)"/><path class="b" d="M72.84,241.7c6.91,0,5.72-12.25,14.53-12.25" transform="translate(-0.57 -6.528)"/><path class="b" d="M116.45,229.45" transform="translate(-0.57 -6.387)"/><path class="b" d="M101.91,241.7c6.91,0,5.72-12.25,14.54-12.25" transform="translate(-0.57 -6.528)"/><path class="b" d="M357.06,77.65c0,6.91-12.25,5.72-12.25,14.53" transform="translate(448.569)"/><path class="b" d="M357.06,48.58c0,6.91-12.25,5.71-12.25,14.53" transform="translate(448.569)"/><path class="b" d="M357.06,77.65c0-6.91-12.25-5.72-12.25-14.54" transform="translate(448.569)"/><path class="b" d="M344.81,34" transform="translate(438.797)"/><path class="b" d="M357.06,48.58c0-6.91-12.25-5.72-12.25-14.54" transform="translate(448.569)"/><path class="b" d="M267.92,229.72c0,6.91-12.25,5.72-12.25,14.54" transform="translate(318.556 -6.564)"/><path class="b" d="M267.92,200.65c0,6.91-12.25,5.72-12.25,14.53" transform="translate(318.556 -5.589)"/><path class="b" d="M267.92,229.72c0-6.91-12.25-5.72-12.25-14.54" transform="translate(318.556 -6.076)"/><path class="b" d="M255.67,186.11" transform="translate(311.612 -4.971)"/><path class="b" d="M267.92,200.65c0-6.91-12.25-5.72-12.25-14.54" transform="translate(318.556 -5.101)"/><path class="b" d="M509.56,472.65c0,6.91-12.26,5.72-12.26,14.54" transform="translate(802.729 -14.71)"/><path class="b" d="M509.56,443.58c0,6.91-12.26,5.71-12.26,14.53" transform="translate(802.729 -13.735)"/><path class="b" d="M509.56,472.65c0-6.91-12.26-5.72-12.26-14.54" transform="translate(802.729 -14.223)"/><path class="b" d="M497.3,429" transform="translate(802.729 -12.908)"/><path class="b" d="M509.56,443.58c0-6.91-12.26-5.72-12.26-14.54" transform="translate(802.729 -13.248)"/><path class="b" d="M209.75,495.56c0,6.91-12.25,5.72-12.25,14.53" transform="translate(233.713 -18.58)"/><path class="b" d="M209.75,466.49c0,6.91-12.25,5.71-12.25,14.53" transform="translate(233.713 -14.503)"/><path class="b" d="M209.75,495.56c0-6.91-12.25-5.72-12.25-14.54" transform="translate(233.713 -14.991)"/><path class="b" d="M197.5,452" transform="translate(228.616 -13.659)"/><path class="b" d="M209.75,466.49c0-6.91-12.25-5.72-12.25-14.54" transform="translate(233.713 -14.016)"/><line class="b" x2="35.87" transform="translate(926.271 378.309)"/><line class="b" x2="35.87" transform="translate(36.3 278.046)"/><line class="b" x2="35.87" transform="translate(933.061 119.56)"/><line class="b" x2="35.87" transform="translate(1336.289 38.61)"/><line class="b" x2="35.87" transform="translate(397.215 554.64)"/><line class="b" y1="25.37" x2="25.36" transform="translate(622.661 463.354)"/><line class="b" y1="25.36" x2="25.37" transform="translate(61.44 38.61)"/><line class="b" y1="25.36" x2="25.36" transform="translate(1354.229 289.569)"/><g class="c" transform="translate(59.11 47.4)"><path class="d" d="M367.77,181.28l-10.5-18.16L346.8,181.29l-10.48,18.18,20.97-.02,20.98-.01Z" transform="translate(387.999 -51.544)"/><path class="d" d="M333.05,403.29l-10.5-18.16L312.08,403.3,301.6,421.47l20.97-.02,20.98-.01Z" transform="translate(331.999 -59.494)"/><path class="d" d="M453.39,471.46l-10.5-18.16-10.47,18.17-10.47,18.18,20.97-.02,20.97-.01Z" transform="translate(526.099 -61.936)"/><path class="d" d="M522.61,332.03l5.42-20.27-20.25,5.45-20.26,5.44,14.84,14.82L517.2,352.3Z" transform="translate(744.189 -56.944)"/><path class="d" d="M177.69,96.74l5.41-20.27-20.25,5.45-20.26,5.44,14.84,14.82L172.27,117Z" transform="translate(75.146 -47.4)"/><path class="d" d="M163.32,534.65l5.42-20.27-20.25,5.45-20.26,5.44,14.84,14.82,14.84,14.83Z" transform="translate(-59.11 -65.98)"/><path class="d" d="M543.86,119.38l18.17-10.5L543.85,98.41,525.68,87.93l.02,20.97.01,20.98Z" transform="translate(744.189 -47.4)"/><path class="d" d="M162.86,328.93l18.16-10.5-18.17-10.47-18.18-10.48.02,20.97.01,20.98Z" transform="translate(77.354 -56.453)"/><path class="d" d="M403.78,294.59a15.91,15.91,0,1,1-15.913-15.92,15.91,15.91,0,0,1,15.913,15.92Z" transform="translate(433.953 -55.61)"/><path class="d" d="M323.38,117a15.92,15.92,0,1,1-15.913-15.91A15.92,15.92,0,0,1,323.38,117Z" transform="translate(306.844 -47.4)"/><path class="d" d="M333.54,586.66a15.91,15.91,0,1,1-4.66-11.26A15.92,15.92,0,0,1,333.54,586.66Z" transform="translate(322.905 -65.98)"/><path class="d" d="M376.1,562.87a15.91,15.91,0,0,1,31.82,0" transform="translate(440.497 -65.98)"/><path class="d" d="M249.08,318.46a15.92,15.92,0,1,1,31.83,0" transform="translate(239.716 -56.183)"/><path class="d" d="M81.67,189.25a15.84,15.84,0,1,1,31.68,0" transform="translate(-59.68 -51.741)"/><path class="d" d="M482.79,215.31a15.84,15.84,0,0,1,0-31.68" transform="translate(564.48 -52.235)"/><path class="d" d="M99.61,586.58a15.84,15.84,0,1,1,0-31.68" transform="translate(-59.68 -65.98)"/><path class="d" d="M270.37,80.49a15.84,15.84,0,1,1,0-31.68" transform="translate(238.937 -47.4)"/><path class="d" d="M107.56,419.21A15.91,15.91,0,1,1,91.65,403.3,15.91,15.91,0,0,1,107.56,419.21Z" transform="translate(-59.68 -60.035)"/><path class="d" d="M598.29,437.38a15.92,15.92,0,1,1-15.917-15.91,15.92,15.92,0,0,1,15.917,15.91Z" transform="translate(743.619 -60.68)"/><rect class="d" width="31.65" height="31.65" transform="translate(1297.889 131.405)"/><rect class="d" width="31.65" height="31.65" transform="translate(352.715 146.673)"/><rect class="d" width="31.65" height="31.65" transform="translate(348.612 341.591)"/><rect class="d" width="31.65" height="31.65" transform="translate(1297.889 488.94)"/><rect class="d" width="31.65" height="31.65" transform="translate(937.338 1.42)"/><path class="d" d="M377.47,370.68c-6.91,0-5.71-12.26-14.53-12.26" transform="translate(403.921 -58.044)"/><path class="d" d="M406.55,370.68c-6.91,0-5.72-12.26-14.54-12.26" transform="translate(448.371 -58.044)"/><path class="d" d="M377.47,370.68c6.91,0,5.72-12.26,14.54-12.26" transform="translate(426.143 -58.044)"/><path class="d" d="M421.08,358.42" transform="translate(477.935 -57.809)"/><path class="d" d="M406.55,370.68c6.9,0,5.72-12.26,14.53-12.26" transform="translate(470.589 -58.044)"/><path class="d" d="M460.29,598.91c-6.91,0-5.72-12.25-14.53-12.25" transform="translate(530.53 -65.98)"/><path class="d" d="M489.37,598.91c-6.92,0-5.72-12.25-14.54-12.25" transform="translate(574.982 -65.98)"/><path class="d" d="M460.29,598.91c6.91,0,5.72-12.25,14.54-12.25" transform="translate(552.754 -65.98)"/><path class="d" d="M503.9,586.66" transform="translate(743.619 -65.98)"/><path class="d" d="M489.37,598.91c6.9,0,5.71-12.25,14.53-12.25" transform="translate(661.635 -65.98)"/><path class="d" d="M499.94,269.87c-6.91,0-5.72-12.25-14.54-12.25" transform="translate(591.141 -54.594)"/><path class="d" d="M529,269.87c-6.91,0-5.72-12.25-14.54-12.25" transform="translate(743.619 -54.594)"/><path class="d" d="M499.94,269.87c6.91,0,5.72-12.25,14.53-12.25" transform="translate(743.619 -54.594)"/><path class="d" d="M543.54,257.62" transform="translate(743.619 -54.435)"/><path class="d" d="M529,269.87c6.91,0,5.72-12.25,14.53-12.25" transform="translate(743.619 -54.594)"/><path class="d" d="M95.65,255.06c-6.91,0-5.71-12.25-14.53-12.25" transform="translate(-59.68 -54.087)"/><path class="d" d="M124.73,255.06c-6.91,0-5.72-12.25-14.54-12.25" transform="translate(-59.68 -54.087)"/><path class="d" d="M95.65,255.06c6.91,0,5.72-12.25,14.54-12.25" transform="translate(-59.68 -54.087)"/><path class="d" d="M139.26,242.81" transform="translate(-59.68 -53.94)"/><path class="d" d="M124.73,255.06c6.91,0,5.71-12.25,14.53-12.25" transform="translate(-59.68 -54.087)"/><path class="d" d="M379.88,91c0,6.91-12.25,5.72-12.25,14.53" transform="translate(409.057 -47.4)"/><path class="d" d="M379.88,61.94c0,6.91-12.25,5.71-12.25,14.53" transform="translate(409.057 -47.4)"/><path class="d" d="M379.88,91c0-6.91-12.25-5.72-12.25-14.54" transform="translate(409.057 -47.4)"/><path class="d" d="M367.63,47.4" transform="translate(398.424 -47.4)"/><path class="d" d="M379.88,61.94c0-6.91-12.25-5.72-12.25-14.54" transform="translate(409.057 -47.4)"/><path class="d" d="M290.74,243.08c0,6.91-12.25,5.72-12.25,14.54" transform="translate(273.375 -54.125)"/><path class="d" d="M290.74,214c0,6.91-12.25,5.72-12.25,14.53" transform="translate(273.375 -53.125)"/><path class="d" d="M290.74,243.08c0-6.91-12.25-5.72-12.25-14.54" transform="translate(273.375 -53.625)"/><path class="d" d="M278.49,199.47" transform="translate(265.82 -52.489)"/><path class="d" d="M290.74,214c0-6.91-12.25-5.72-12.25-14.54" transform="translate(273.375 -52.626)"/><path class="d" d="M532.37,486c0,6.91-12.25,5.72-12.25,14.53" transform="translate(743.619 -62.473)"/><path class="d" d="M532.37,456.94c0,6.91-12.25,5.71-12.25,14.53" transform="translate(743.619 -61.474)"/><path class="d" d="M532.37,486c0-6.91-12.25-5.72-12.25-14.54" transform="translate(743.619 -61.973)"/><path class="d" d="M520.12,442.4" transform="translate(743.619 -60.619)"/><path class="d" d="M532.37,456.94c0-6.91-12.25-5.72-12.25-14.54" transform="translate(743.619 -60.975)"/><path class="d" d="M232.57,508.92c0,6.91-12.26,5.72-12.26,14.53" transform="translate(184.823 -65.98)"/><path class="d" d="M232.57,479.85c0,6.91-12.26,5.71-12.26,14.53" transform="translate(184.823 -62.262)"/><path class="d" d="M232.57,508.92c0-6.91-12.26-5.72-12.26-14.54" transform="translate(184.823 -65.98)"/><path class="d" d="M220.31,465.31" transform="translate(179.272 -61.386)"/><path class="d" d="M232.57,479.85c0-6.91-12.26-5.72-12.26-14.54" transform="translate(184.823 -61.762)"/><line class="d" x2="35.87" transform="translate(914.524 343.989)"/><line class="d" x2="35.87" transform="translate(0 243.808)"/><line class="d" x2="35.87" transform="translate(921.474 85.52)"/><line class="d" x2="35.87" transform="translate(1299.999 4.57)"/><line class="d" x2="35.87" transform="translate(370.861 520.6)"/><line class="d" y1="25.37" x2="25.36" transform="translate(602.092 425.94)"/><line class="d" y1="25.36" x2="25.36" transform="translate(25.15 4.57)"/><line class="d" y1="25.36" x2="25.37" transform="translate(1317.929 255.302)"/></g><path class="b" d="M363.45,474.86a6.27,6.27,0,1,1,2-8.64,6.27,6.27,0,0,1-2,8.64Z" transform="translate(462.015 -14.344)"/><path class="b" d="M314.06,302.45a6.27,6.27,0,1,1,2-8.64A6.27,6.27,0,0,1,314.06,302.45Z" transform="translate(389.94 -8.583)"/><path class="b" d="M88.17,355.47a6.27,6.27,0,1,1,2-8.64,6.27,6.27,0,0,1-2,8.64Z" transform="translate(-0.57 -10.355)"/><path class="b" d="M152.39,158.18a6.25,6.25,0,1,1,2.8-3.9,6.26,6.26,0,0,1-2.8,3.9Z" transform="translate(154.044 -3.762)"/><path class="b" d="M497.17,155.07a6.27,6.27,0,1,1,2-8.64A6.27,6.27,0,0,1,497.17,155.07Z" transform="translate(802.729 -3.658)"/><path class="b" d="M585.71,378.38a6.27,6.27,0,1,1,2.795-3.91,6.27,6.27,0,0,1-2.795,3.91Z" transform="translate(802.729 -11.12)"/></g></svg>